<svg version="1.1" id="Calque_1" xmlns="http://www.w3.org/2000/svg" x="0" y="0" viewBox="0 0 58.3 55.1" xml:space="preserve"><path class="st0" d="M32.2 28.1c.1-.3.1-.6.1-1 0-2.2-1.8-4.1-4-4.1-.4 0-.8.1-1.2.2l5.1 4.9zM25.4 24.2c-.7.7-1.2 1.7-1.2 2.8 0 2.2 1.8 4.1 4 4.1 1.2 0 2.2-.5 2.9-1.3l-5.7-5.6z"/><path class="st0" d="M18 14.2c2.8-2.3 6.4-3.7 10.4-3.7 9.1 0 16.6 7.4 16.6 16.6 0 3.7-1.3 7.2-3.4 10l2.2 2.1c2.6-3.3 4.2-7.5 4.2-12.1 0-10.8-8.8-19.6-19.6-19.6-4.8 0-9.1 1.7-12.5 4.6l2.1 2.1zM40.2 38.7c-3 3.1-7.2 5.1-11.9 5.1-9.1 0-16.6-7.4-16.6-16.6 0-4.5 1.8-8.6 4.7-11.5l-2.1-2.1c-3.4 3.5-5.6 8.3-5.6 13.6 0 10.8 8.8 19.6 19.6 19.6 5.5 0 10.5-2.3 14-6l-2.1-2.1z"/><g><path class="st0" d="M26.2 22.1c.7-.3 1.4-.5 2.2-.5 3 0 5.4 2.4 5.4 5.4 0 .7-.1 1.4-.4 2l6.2 6c.6-.3.9-1 .9-1.9V21.8c0-1.3-.8-2.1-2.1-2.1h-3.5c-.1 0-.3-.1-.4-.2-.6-.6-1.2-1.2-1.8-1.9-.4-.4-.8-.8-1.4-.9h-5.5c-.6.1-1 .5-1.4.9-.4.4-.8.9-1.3 1.3l3.1 3.2zm11.9-.9c.4 0 .8.4.8.8 0 .5-.4.8-.8.8s-.8-.4-.8-.8.4-.8.8-.8zM32.2 30.8c-1 1-2.3 1.6-3.8 1.6-3 0-5.4-2.4-5.4-5.4 0-1.5.6-2.8 1.5-3.7l-3.7-3.6h-2.2c-1.4 0-1.9.3-2.4 1.6v12.4c0 .1.1.1.1.2.2.8 1 1.4 1.9 1.4h18.7l-4.7-4.5z"/></g><g><path class="st0" d="M10.3 10.9 46.4 46M46.4 47c-.3 0-.5-.1-.7-.3l-36.1-35c-.4-.4-.4-1 0-1.4.4-.4 1-.4 1.4 0l36.1 35.1c.4.4.4 1 0 1.4-.2.1-.4.2-.7.2z"/></g></svg>