<?xml version="1.0" encoding="utf-8"?>
<!-- Generator: Adobe Illustrator 25.2.1, SVG Export Plug-In . SVG Version: 6.00 Build 0)  -->
<svg version="1.1" id="Calque_1" xmlns="http://www.w3.org/2000/svg" xmlns:xlink="http://www.w3.org/1999/xlink" x="0px" y="0px"
	 viewBox="0 0 58.3 55.1" style="enable-background:new 0 0 58.3 55.1;" xml:space="preserve">
<style type="text/css">
	.st0{fill:#EDEDED;}
</style>
<g>
	<g>
		<path class="st0" d="M32.2,28.1c0.1-0.3,0.1-0.6,0.1-1c0-2.2-1.8-4.1-4-4.1c-0.4,0-0.8,0.1-1.2,0.2L32.2,28.1z"/>
		<path class="st0" d="M25.4,24.2c-0.7,0.7-1.2,1.7-1.2,2.8c0,2.2,1.8,4.1,4,4.1c1.2,0,2.2-0.5,2.9-1.3L25.4,24.2z"/>
	</g>
	<g>
		<g>
			<path class="st0" d="M18,14.2c2.8-2.3,6.4-3.7,10.4-3.7c9.1,0,16.6,7.4,16.6,16.6c0,3.7-1.3,7.2-3.4,10l2.2,2.1
				c2.6-3.3,4.2-7.5,4.2-12.1c0-10.8-8.8-19.6-19.6-19.6c-4.8,0-9.1,1.7-12.5,4.6L18,14.2z"/>
		</g>
		<g>
			<path class="st0" d="M40.2,38.7c-3,3.1-7.2,5.1-11.9,5.1c-9.1,0-16.6-7.4-16.6-16.6c0-4.5,1.8-8.6,4.7-11.5l-2.1-2.1
				c-3.4,3.5-5.6,8.3-5.6,13.6c0,10.8,8.8,19.6,19.6,19.6c5.5,0,10.5-2.3,14-6L40.2,38.7z"/>
		</g>
	</g>
	<g>
		<path class="st0" d="M26.2,22.1c0.7-0.3,1.4-0.5,2.2-0.5c3,0,5.4,2.4,5.4,5.4c0,0.7-0.1,1.4-0.4,2l6.2,6c0.6-0.3,0.9-1,0.9-1.9
			c0-3.8,0-7.6,0-11.3c0-1.3-0.8-2.1-2.1-2.1c-1.2,0-2.3,0-3.5,0c-0.1,0-0.3-0.1-0.4-0.2c-0.6-0.6-1.2-1.2-1.8-1.9
			c-0.4-0.4-0.8-0.8-1.4-0.9c-1.8,0-3.7,0-5.5,0c-0.6,0.1-1,0.5-1.4,0.9c-0.4,0.4-0.8,0.9-1.3,1.3L26.2,22.1z M38.1,21.2
			c0.4,0,0.8,0.4,0.8,0.8c0,0.5-0.4,0.8-0.8,0.8c-0.4,0-0.8-0.4-0.8-0.8C37.3,21.6,37.7,21.2,38.1,21.2z"/>
		<path class="st0" d="M32.2,30.8c-1,1-2.3,1.6-3.8,1.6c-3,0-5.4-2.4-5.4-5.4c0-1.5,0.6-2.8,1.5-3.7l-3.7-3.6c-0.7,0-1.5,0-2.2,0
			c-1.4,0-1.9,0.3-2.4,1.6c0,4.1,0,8.2,0,12.4c0,0.1,0.1,0.1,0.1,0.2c0.2,0.8,1,1.4,1.9,1.4c0.7,0,1.5,0,2.2,0c5.5,0,11,0,16.5,0
			L32.2,30.8z"/>
	</g>
	<g>
		<line class="st0" x1="10.3" y1="10.9" x2="46.4" y2="46"/>
		<path class="st0" d="M46.4,47c-0.3,0-0.5-0.1-0.7-0.3L9.6,11.7c-0.4-0.4-0.4-1,0-1.4c0.4-0.4,1-0.4,1.4,0l36.1,35.1
			c0.4,0.4,0.4,1,0,1.4C46.9,46.9,46.7,47,46.4,47z"/>
	</g>
</g>
</svg>
