<svg id="Calque_1" data-name="Calque 1" xmlns="http://www.w3.org/2000/svg" viewBox="0 0 390.02 353.26"><g id="freepik--background-simple--inject-2"><path d="M135.16,351.15C93.61,332.3,64.28,289.87,59.38,244.5s14-92.22,47.69-123,81.05-45.37,126.46-40.9c36.83,3.63,69,26.42,90.26,56.7,7.75,11,14,23.33,24,32.38,19.31,17.48,48.61,19.58,69,35.75,22.51,17.82,29.64,50.86,20.91,78.21s-31,48.92-56.7,61.65-54.69,17.51-83.34,19.38C284.45,365.54,172,367.87,135.16,351.15Z" transform="translate(-51.29 -70.45)" fill="#37474f"/><path d="M135.16,351.15C93.61,332.3,64.28,289.87,59.38,244.5s14-92.22,47.69-123,81.05-45.37,126.46-40.9c36.83,3.63,69,26.42,90.26,56.7,7.75,11,14,23.33,24,32.38,19.31,17.48,48.61,19.58,69,35.75,22.51,17.82,29.64,50.86,20.91,78.21s-31,48.92-56.7,61.65-54.69,17.51-83.34,19.38C284.45,365.54,172,367.87,135.16,351.15Z" transform="translate(-51.29 -70.45)" fill="#fff" opacity="0.9" style="isolation:isolate"/></g><g id="freepik--Shadow--inject-2"><ellipse id="freepik--path--inject-2" cx="193.89" cy="341.94" rx="193.89" ry="11.32" fill="#f5f5f5"/></g><g id="freepik--Device--inject-2"><path d="M342.85,339.83H246.56A18.07,18.07,0,0,1,228.24,322c0-.61,0-1.21.07-1.82l16.1-230.15a21.35,21.35,0,0,1,21-19.61H361.7A18.05,18.05,0,0,1,380,88.23c0,.61,0,1.22-.07,1.83l-16.1,230.15A21.36,21.36,0,0,1,342.85,339.83Z" transform="translate(-51.29 -70.45)" fill="#37474f"/><path d="M337.85,339.83H241.56A18.07,18.07,0,0,1,223.24,322c0-.61,0-1.21.07-1.82l16.1-230.15a21.35,21.35,0,0,1,21-19.61H356.7A18.05,18.05,0,0,1,375,88.23c0,.61,0,1.22-.07,1.83l-16.1,230.15A21.36,21.36,0,0,1,337.85,339.83Z" transform="translate(-51.29 -70.45)" fill="#263238"/><path d="M356.37,75h-25a3.57,3.57,0,0,0-3.43,2.84l-.15.79a8.69,8.69,0,0,1-8.38,6.94H295.59a7.3,7.3,0,0,1-7.41-6.94v-.79a3,3,0,0,0-3-2.84h-25A16.45,16.45,0,0,0,244,90.11l-16.1,230.15a13.92,13.92,0,0,0,12.67,15.07,12.92,12.92,0,0,0,1.39.05h96.29a16.46,16.46,0,0,0,16.17-15.12l16.1-230.15a13.91,13.91,0,0,0-12.65-15.06C357.37,75,356.87,75,356.37,75Z" transform="translate(-51.29 -70.45)" fill="#37474f"/><path d="M370.43,90.07,354.34,320.22a16.47,16.47,0,0,1-16.18,15.11H241.87a13.91,13.91,0,0,1-14.05-15.11L243.91,90.07A16.46,16.46,0,0,1,260.08,75h25a3,3,0,0,1,3,2.85v.78a7.32,7.32,0,0,0,7.41,7h23.79a8.66,8.66,0,0,0,8.37-7l.16-.78A3.56,3.56,0,0,1,331.35,75h25a13.93,13.93,0,0,1,14.13,13.71C370.48,89.16,370.47,89.62,370.43,90.07Z" transform="translate(-51.29 -70.45)" fill="#fff" opacity="0.8" style="isolation:isolate"/><path d="M356.27,292.56l-1.93,27.66a16.47,16.47,0,0,1-16.18,15.11H241.87a13.91,13.91,0,0,1-14.05-15.11l1.93-27.66Z" transform="translate(-51.29 -70.45)" fill="#263238"/><path d="M356.27,292.56l-1.93,27.66a16.47,16.47,0,0,1-16.18,15.11H241.87a13.91,13.91,0,0,1-14.05-15.11l1.93-27.66Z" transform="translate(-51.29 -70.45)" fill="#fff" opacity="0.5" style="isolation:isolate"/><g opacity="0.7"><path d="M302.22,77.5a2.07,2.07,0,0,1-2,1.91,1.75,1.75,0,0,1-1.79-1.71,1.34,1.34,0,0,1,0-.2,2.07,2.07,0,0,1,2-1.91,1.75,1.75,0,0,1,1.79,1.71A1.34,1.34,0,0,1,302.22,77.5Z" transform="translate(-51.29 -70.45)"/><path d="M315.92,75.59h-6.56a2.08,2.08,0,0,0-2.05,1.91,1.75,1.75,0,0,0,1.6,1.9h6.74a2.07,2.07,0,0,0,2-1.91,1.75,1.75,0,0,0-1.58-1.9Z" transform="translate(-51.29 -70.45)"/></g><polygon points="203.42 15.04 205.44 15.04 205.58 13.01 203.56 13.01 203.42 15.04" fill="#37474f"/><polygon points="207.61 13.01 207.47 15.04 209.49 15.04 209.64 13.01 209.78 10.99 207.75 10.99 207.61 13.01" fill="#37474f"/><polygon points="211.94 8.96 211.8 10.99 211.66 13.01 211.52 15.04 213.54 15.04 213.69 13.01 213.83 10.99 213.97 8.96 211.94 8.96" fill="#37474f"/><path d="M350.3,79.55,350.2,81h-1l-.2,3h1l-.1,1.49h8.91l.41-5.94ZM354,84h-3l.21-3h3Z" transform="translate(-51.29 -70.45)" fill="#37474f"/><path d="M261.92,167.88h-.68a.77.77,0,0,1-.79-.76.25.25,0,0,1,0-.08l1-14.33a5.53,5.53,0,0,1,5.44-5.07h14.32a.77.77,0,0,1,.78.76v.75a.91.91,0,0,1-.9.84H266.73a3,3,0,0,0-2.91,2.72l-1,14.33A.92.92,0,0,1,261.92,167.88Z" transform="translate(-51.29 -70.45)" fill="#37474f"/><path d="M316.24,227l.05-.68a.9.9,0,0,1,.89-.84h14.29a3,3,0,0,0,2.92-2.72l1-14.33a.9.9,0,0,1,.9-.84H337a.78.78,0,0,1,.79.77v.07l-1,14.33a5.54,5.54,0,0,1-5.43,5.08H317a.79.79,0,0,1-.79-.78A.13.13,0,0,1,316.24,227Z" transform="translate(-51.29 -70.45)" fill="#37474f"/><path d="M339.78,167.88h-.68a.77.77,0,0,1-.79-.76.25.25,0,0,1,0-.08l1-14.22a2.8,2.8,0,0,0-.36-1.63,2.53,2.53,0,0,0-2.17-1.19H322.47a.79.79,0,0,1-.79-.78.13.13,0,0,1,0-.06l.05-.68a.9.9,0,0,1,.9-.84h14.13a5,5,0,0,1,3.36,1.18,4.72,4.72,0,0,1,1.56,3.9l-1,14.32A.93.93,0,0,1,339.78,167.88Z" transform="translate(-51.29 -70.45)" fill="#37474f"/><path d="M261.28,227.86A4.69,4.69,0,0,1,257.5,226a4.92,4.92,0,0,1-.93-3.44l1-14.14a.92.92,0,0,1,.9-.84h.68a.78.78,0,0,1,.78.78v.06l-1,14.24a2.62,2.62,0,0,0,.36,1.62,2.5,2.5,0,0,0,2.16,1.19h14.32a.78.78,0,0,1,.79.77V227a.92.92,0,0,1-.9.84Z" transform="translate(-51.29 -70.45)" fill="#37474f"/></g><g id="freepik--Character--inject-2"><polygon points="139.32 339.96 147.12 338.08 143.09 319.96 135.3 321.84 139.32 339.96" fill="#ff887b"/><path d="M198.11,406.65l-8.52,2.06a.68.68,0,0,0-.52.68l.3,7.24a1.21,1.21,0,0,0,1.26,1.14h.23c3-.8,7.44-2,11.31-3,4.5-1.09,4.93-.93,10.22-2.21,3.2-.77,3.22-4.2,1.81-4.16-6.45.14-7.94.35-14.06-1.62A3.79,3.79,0,0,0,198.11,406.65Z" transform="translate(-51.29 -70.45)" fill="#263238"/><polygon points="143.09 319.97 145.17 329.31 137.37 331.19 135.3 321.85 143.09 319.97" opacity="0.2" style="isolation:isolate"/><path d="M199.09,406.14a.2.2,0,0,1-.16-.07.18.18,0,0,1,0-.25h0c.3-.27,3-2.57,4-2.27a.62.62,0,0,1,.42.41,1,1,0,0,1-.1,1,3,3,0,0,1-1.76.93A14.45,14.45,0,0,1,199.09,406.14Zm.5-.4c1.77-.12,3-.5,3.37-1a.64.64,0,0,0,.06-.64.23.23,0,0,0-.16-.17,1.09,1.09,0,0,0-.36,0,10.08,10.08,0,0,0-2.91,1.81Z" transform="translate(-51.29 -70.45)" fill="#37474f"/><path d="M199,406.15a.21.21,0,0,1-.11-.15c0-.08-.33-2.2.41-3.22a1.28,1.28,0,0,1,.92-.55c.51-.08.76.14.81.33.37.84-1,2.92-1.83,3.57h-.08A.25.25,0,0,1,199,406.15Zm.61-3.14a4.28,4.28,0,0,0-.36,2.59c.79-.79,1.69-2.39,1.47-2.88,0-.05-.08-.2-.41-.12h-.11a.93.93,0,0,0-.62.4Z" transform="translate(-51.29 -70.45)" fill="#37474f"/><polygon points="79.33 338.4 87.25 339.64 90.46 321.36 82.53 320.11 79.33 338.4" fill="#ff887b"/><path d="M138.61,409.16l-8.67-1.35a.67.67,0,0,0-.74.43l-2.49,6.8a1.19,1.19,0,0,0,.7,1.53h0a.79.79,0,0,0,.22.06c3.13.43,7.66.95,11.59,1.57,4.58.72,4.92,1,10.29,1.87,3.25.51,4.58-2.65,3.26-3.16-6-2.33-7.46-2.71-12.37-6.87A3.89,3.89,0,0,0,138.61,409.16Z" transform="translate(-51.29 -70.45)" fill="#263238"/><polygon points="90.46 321.36 88.59 331.98 80.67 330.74 82.53 320.12 90.46 321.36" opacity="0.2" style="isolation:isolate"/><path d="M139.7,409.06a.15.15,0,0,1-.12-.12.19.19,0,0,1,.11-.23h0c.38-.13,3.74-1.24,4.6-.55a.6.6,0,0,1,.24.54,1,1,0,0,1-.46.85,3,3,0,0,1-2,.18A13.16,13.16,0,0,1,139.7,409.06Zm.61-.17c1.69.56,3,.69,3.52.33a.65.65,0,0,0,.3-.56.27.27,0,0,0-.08-.22,1.06,1.06,0,0,0-.34-.12,10.33,10.33,0,0,0-3.4.57Z" transform="translate(-51.29 -70.45)" fill="#37474f"/><path d="M139.59,409a.25.25,0,0,1-.05-.19c0-.08.53-2.16,1.61-2.82a1.32,1.32,0,0,1,1.06-.16c.51.13.66.43.63.62,0,.92-2.05,2.32-3.06,2.6h-.08A.16.16,0,0,1,139.59,409Zm1.76-2.68a4.38,4.38,0,0,0-1.32,2.26c1-.43,2.48-1.56,2.46-2.1,0,0,0-.22-.33-.27H142a1,1,0,0,0-.69.15Z" transform="translate(-51.29 -70.45)" fill="#37474f"/><path d="M185,269l.89,2.73-5.13,1.91-8.42-1.32-4.1-2.37a26.77,26.77,0,0,1,8.82-2.36C182.39,267,185,269,185,269Z" transform="translate(-51.29 -70.45)" fill="#fff" opacity="0.2" style="isolation:isolate"/><path d="M178.91,235.85l11.44,96.47,8.49,60.83a2.88,2.88,0,0,1-2.23,3.33l-9.44,2.41a2.84,2.84,0,0,1-3-2.33c-3-12.57-11.06-37.1-12.58-61.19,0,0-16-61.45-19.29-80.46l-1-17.18Z" transform="translate(-51.29 -70.45)" fill="#37474f"/><path d="M164.73,259.15s2.91,27.35,0,49.58c0,0-6.15-25.51-8.94-35.58Z" transform="translate(-51.29 -70.45)" opacity="0.2" style="isolation:isolate"/><path d="M167,231.16,157.36,340l-12.24,58.1a2.52,2.52,0,0,1-2.82,2.18l-.18,0-10.38-2.16a3.05,3.05,0,0,1-2.16-3.26c1-12.55.4-33,6.52-55.18,0,0,.69-75,3.31-108.29Z" transform="translate(-51.29 -70.45)" fill="#37474f"/><path d="M227.42,182.14l2.09-2.9,7.58,4.66a28.25,28.25,0,0,1-5,3.4,3.53,3.53,0,0,1-3.77-.36l-.28-.22A3.32,3.32,0,0,1,227.42,182.14Z" transform="translate(-51.29 -70.45)" fill="#ff8b7b"/><polygon points="184.35 104.5 188.32 111.36 185.81 113.46 178.23 108.79 184.35 104.5" fill="#ff8b7b"/><path d="M175.34,190.34a237.84,237.84,0,0,0,24,4.29c4,.52,21.06-3.4,28.41-4.68a1.44,1.44,0,0,0,1.52-1.37,1.35,1.35,0,0,0-.13-.69l-.9-6.41a2.84,2.84,0,0,0-.63-1.7,2.89,2.89,0,0,0-2.55-.38c-9.73,1.6-23.63,2.6-23.63,2.6-6.88-1-14.25-3.85-20.54-6.69C162.12,166.87,171.17,189.26,175.34,190.34Z" transform="translate(-51.29 -70.45)" fill="#263238"/><path d="M175.34,190.34a237.84,237.84,0,0,0,24,4.29c4,.52,21.06-3.4,28.41-4.68a1.44,1.44,0,0,0,1.52-1.37,1.35,1.35,0,0,0-.13-.69l-.9-6.41a2.84,2.84,0,0,0-.63-1.7,2.89,2.89,0,0,0-2.55-.38c-9.73,1.6-23.63,2.6-23.63,2.6-6.88-1-14.25-3.85-20.54-6.69C162.12,166.87,171.17,189.26,175.34,190.34Z" transform="translate(-51.29 -70.45)" opacity="0.1" style="isolation:isolate"/><polygon points="190.9 117.3 182.28 115.59 187.56 97.49 196.17 99.2 190.9 117.3" fill="#37474f"/><path d="M249.23,169l-5.9,20.25a1,1,0,0,1-1.15.69l-.5-.1a1,1,0,0,0,1.14-.69l5.9-20.26a1,1,0,0,0-.69-1.23l-.07,0,.5.1a1,1,0,0,1,.79,1.17A.29.29,0,0,1,249.23,169Z" transform="translate(-51.29 -70.45)" fill="#37474f"/><path d="M249.23,169l-5.9,20.25a1,1,0,0,1-1.15.69l-.5-.1a1,1,0,0,0,1.14-.69l5.9-20.26a1,1,0,0,0-.69-1.23l-.07,0,.5.1a1,1,0,0,1,.79,1.17A.29.29,0,0,1,249.23,169Z" transform="translate(-51.29 -70.45)" opacity="0.3" style="isolation:isolate"/><path d="M248,167.6l-8.59-1.7a1,1,0,0,0-1.15.69l-5.9,20.25a1,1,0,0,0,.69,1.23l.07,0,8.6,1.71a1,1,0,0,0,1.14-.69l5.9-20.26a1,1,0,0,0-.69-1.23Zm-5.77,20.15L233.58,186l5.27-18.1,8.61,1.71Z" transform="translate(-51.29 -70.45)" fill="#37474f"/><polygon points="196.17 99.2 190.9 117.3 182.28 115.59 187.56 97.49 196.17 99.2" fill="#37474f"/><polygon points="196.17 99.2 190.9 117.3 182.28 115.59 187.56 97.49 196.17 99.2" fill="#fff" opacity="0.7" style="isolation:isolate"/><path d="M233.3,176.59l1.94-2.05a.36.36,0,0,1,.51,0,.39.39,0,0,1,.1.16l.27.78a1.73,1.73,0,0,1-.18,1.47L233,181.55l-3.47-2.31Z" transform="translate(-51.29 -70.45)" fill="#ff8b7b"/><path d="M152.6,167.47c3.37,1.24,6.42,3.09,9.77,4.34,3.51,1.32,9.68,1.63,14.18,1.81,4.06.16,3.81,27.9,3.81,27.9.15,26.33,1.72,36.22-2.19,36.21-7.27,0-33.83,1-35.38.74-11.47-1.63-4.43-27.74-4.59-31.83-.1-2.52-.31-5-.64-7.51a23.68,23.68,0,0,0-1-4.41c-.84-2.41-2.2-4.5-4.54-5.27-2.1-.7-2.93-.32-5.14-.47" transform="translate(-51.29 -70.45)" fill="#263238"/><path d="M150.53,158.18c1.11,4.44.86,11.67.89,16.67,0,4.64,12,8.5,12,8.5s5-4.18,1.12-7.3c-3.21-2.62-3.66-5.67-3-9.34Z" transform="translate(-51.29 -70.45)" fill="#ff8b7b"/><path d="M155.06,161.68l6.55,5a20.07,20.07,0,0,0-.38,3.09c-2.38-.22-5.77-2.65-6.16-5.11A8.29,8.29,0,0,1,155.06,161.68Z" transform="translate(-51.29 -70.45)" opacity="0.2" style="isolation:isolate"/><path d="M149.44,149.85c.85,7.51,1,11.94,5,15.62,6,5.52,15.15,1.59,16.56-6,1.27-6.85-.34-18-7.87-20.6a10.31,10.31,0,0,0-13.66,11Z" transform="translate(-51.29 -70.45)" fill="#ff8b7b"/><path d="M163.32,158.74c-1.09.39.49,2,2.22,2.09h3.09a2.07,2.07,0,0,0,1.86-1c.32-.59.31-1.22-.18-1.4a6,6,0,0,0-2.31-.21A21.72,21.72,0,0,0,163.32,158.74Z" transform="translate(-51.29 -70.45)" fill="#ff8b7b"/><path d="M169,159.41h0a5.54,5.54,0,0,1-5-.92.19.19,0,0,1,0-.27h0a.22.22,0,0,1,.22,0,5.28,5.28,0,0,0,4.7.85.2.2,0,0,1,.24.13h0a.18.18,0,0,1-.14.22Z" transform="translate(-51.29 -70.45)" fill="#263238"/><path d="M171.54,158.9c-.06-.49-.12-1-.18-1.38l-.33,0a2.34,2.34,0,0,1-2-.87,3.86,3.86,0,0,0-1-.86,5.34,5.34,0,0,0-1.45-.37,6,6,0,0,0-3.64,1.08" transform="translate(-51.29 -70.45)" fill="#263238"/><path d="M159.47,157.35a9.21,9.21,0,0,1-6.58-3.68c.09.86-.24,2,.38,2.59,2,2-.11,4-1.85,5.83-.46.51,5.83,6,6.54,6.51,5.16,0,10-.25,15.16-.25l-1.58-9.59c-4.4-3-7-3-8.56-2.4A6.67,6.67,0,0,1,159.47,157.35Z" transform="translate(-51.29 -70.45)" fill="#263238"/><path d="M155.89,148.1a5.18,5.18,0,0,1,.7,2.77,13.79,13.79,0,0,0-2.08,2.61c-.85,1.4-1.12,3.15-2.21,4.38l-.2.13a53.22,53.22,0,0,1-2.38-5A21.52,21.52,0,0,1,155.89,148.1Z" transform="translate(-51.29 -70.45)" fill="#263238"/><path d="M146.64,157.18a7.21,7.21,0,0,0,4.11,3.65c2.38.81,3.72-1.29,3.16-3.64-.49-2.08-2.33-5-4.78-4.83a3.23,3.23,0,0,0-2.9,3.53A3.15,3.15,0,0,0,146.64,157.18Z" transform="translate(-51.29 -70.45)" fill="#ff8b7b"/><path d="M162.23,151.38c0,.61.38,1.09.79,1.07s.7-.53.66-1.14-.38-1.1-.78-1.08S162.2,150.76,162.23,151.38Z" transform="translate(-51.29 -70.45)" fill="#263238"/><path d="M168.64,151c0,.62.38,1.1.78,1.07s.7-.53.67-1.15-.38-1.08-.79-1.06S168.61,150.41,168.64,151Z" transform="translate(-51.29 -70.45)" fill="#263238"/><path d="M166.62,150.64c1.15,1.66,2.48,2.43,4,3.71-.82,1.24-2.84,1.09-2.84,1.09Z" transform="translate(-51.29 -70.45)" fill="#ff5652"/><path d="M160,149.25a.33.33,0,0,0,.34-.16,2.9,2.9,0,0,1,2.25-1.32.37.37,0,0,0,.37-.35.35.35,0,0,0-.33-.37h0a3.59,3.59,0,0,0-2.86,1.64.37.37,0,0,0,.09.5A.44.44,0,0,0,160,149.25Z" transform="translate(-51.29 -70.45)" fill="#263238"/><path d="M170.76,148.9a.37.37,0,0,0,.21,0,.35.35,0,0,0,.16-.47v0a3.59,3.59,0,0,0-2.73-1.9.37.37,0,0,0-.39.34.36.36,0,0,0,.33.38h0a2.86,2.86,0,0,1,2.11,1.53A.43.43,0,0,0,170.76,148.9Z" transform="translate(-51.29 -70.45)" fill="#263238"/><path d="M143.63,183.39s.4,13.52-2.28,19.78c-1.06,2.5-2.09,3.77-2.95,4.38-.39-2.5-.91-5-1.53-7.39a22.86,22.86,0,0,0-1.51-4.25l-.24-3.13Z" transform="translate(-51.29 -70.45)" opacity="0.4" style="isolation:isolate"/><path d="M146,239.93c-.09.43-.35,2.66-.69,4.15A12.17,12.17,0,0,1,140.2,251c-2,1.06-.84-8.25-.84-8.25l.38-3.21Z" transform="translate(-51.29 -70.45)" opacity="0.2" style="isolation:isolate"/><path d="M137.79,239.93l7.69,3.5h0a11.14,11.14,0,0,1-4.59,7.13l-.66.46s-7.47-7.12-6.46-9.26Z" transform="translate(-51.29 -70.45)" fill="#ff8b7b"/><path d="M122.5,217.75c0,10.65,3.65,14.6,6.8,23.74a3.88,3.88,0,0,0,4.57,2.51c3.56-.79,7.06-3.38,4.86-8,0,0-2.16-5.95-3.61-17.69a13.41,13.41,0,0,1,0-4.81c1.08-4.55,5.4-13.56,6.41-19.61.84-5.17,1.94-11.63-.54-13.77C129.48,170.08,122.5,197.36,122.5,217.75Z" transform="translate(-51.29 -70.45)" fill="#263238"/><path d="M169.77,145.7c-2.85-1.6-6.36-1-9.18.44a29.76,29.76,0,0,0-6.61,5.32c-2.12,2.06-4.16,4-6.25,6a1.2,1.2,0,0,1-1.68,0,1.23,1.23,0,0,1-.23-.33c-.24-.51-.47-1-.76-1.53a1.25,1.25,0,0,1-.13-1c.24-.76.5-1.52.72-2.27a17.47,17.47,0,0,1,2.77-16c2.33-3,6.82-3,10.51-2.23a14.16,14.16,0,0,1,8.95,6.44,2.44,2.44,0,0,1,2.24.56,4,4,0,0,1,1.39,1.93,2.68,2.68,0,0,1,0,2.28A1.3,1.3,0,0,1,169.77,145.7Z" transform="translate(-51.29 -70.45)" fill="#37474f"/></g></svg>